<svg width="23" height="23" viewBox="0 0 23 23" fill="none" xmlns="http://www.w3.org/2000/svg">
    <path d="M3.33871 3.38508C5.59543 1.12836 8.31586 0 11.5 0C14.6841 0 17.3891 1.12836 19.6149 3.38508C21.8716 5.61089 23 8.31586 23 11.5C23 14.6841 21.8716 17.4046 19.6149 19.6613C17.3891 21.8871 14.6841 23 11.5 23C8.31586 23 5.59543 21.8871 3.33871 19.6613C1.1129 17.4046 0 14.6841 0 11.5C0 8.31586 1.1129 5.61089 3.33871 3.38508ZM14.375 5.65726C13.5712 4.85349 12.6129 4.45161 11.5 4.45161C10.3871 4.45161 9.42876 4.85349 8.625 5.65726C7.82124 6.46102 7.41935 7.41935 7.41935 8.53226C7.41935 9.64516 7.82124 10.6035 8.625 11.4073C9.42876 12.211 10.3871 12.6129 11.5 12.6129C12.6129 12.6129 13.5712 12.211 14.375 11.4073C15.1788 10.6035 15.5806 9.64516 15.5806 8.53226C15.5806 7.41935 15.1788 6.46102 14.375 5.65726ZM4.72984 17.25C6.49194 19.3521 8.74866 20.4032 11.5 20.4032C14.2513 20.4032 16.5081 19.3521 18.2702 17.25C17.8374 16.4153 17.2191 15.7507 16.4153 15.256C15.6116 14.7305 14.7151 14.4677 13.7258 14.4677C13.6331 14.4677 13.5249 14.4832 13.4012 14.5141C12.752 14.7305 12.1183 14.8387 11.5 14.8387C10.8817 14.8387 10.248 14.7305 9.59879 14.5141C9.47513 14.4832 9.36694 14.4677 9.27419 14.4677C8.28495 14.4677 7.38844 14.7305 6.58468 15.256C5.78091 15.7507 5.16263 16.4153 4.72984 17.25Z" fill="#C4C4C4"/>
    </svg>
