<svg width="33" height="30" viewBox="0 0 33 30" fill="none" xmlns="http://www.w3.org/2000/svg">
<path d="M12.4381 12.0579C13.6902 12.0579 14.7053 11.0158 14.7053 9.7303C14.7053 8.44481 13.6902 7.40271 12.4381 7.40271C11.1859 7.40271 10.1709 8.44481 10.1709 9.7303C10.1709 11.0158 11.1859 12.0579 12.4381 12.0579Z" fill="#999999"/>
<path d="M31.0477 18.2974C29.9771 17.2629 28.6231 16.5841 27.1431 16.3901V4.55819C27.1431 3.29741 26.6393 2.16595 25.8521 1.32543C25.0334 0.484914 23.9313 0 22.7032 0H4.43989C3.21183 0 2.10973 0.517241 1.29103 1.32543C0.472328 2.16595 0 3.29741 0 4.55819V19.4612V20.8513V23.8578C0 25.1185 0.503817 26.25 1.29103 27.0905C2.10973 27.931 3.21183 28.4159 4.43989 28.4159H22.105C23.27 29.3858 24.7185 30 26.3244 30C28.1823 30 29.8511 29.2241 31.0477 27.9957C32.2443 26.7672 33 25.0539 33 23.1466C33 21.2392 32.2443 19.5259 31.0477 18.2974ZM1.66889 4.55819C1.66889 3.78233 1.98378 3.07112 2.4876 2.55388C2.99141 2.03664 3.68416 1.71336 4.43989 1.71336H22.7032C23.459 1.71336 24.1517 2.03664 24.6555 2.55388C25.1594 3.07112 25.4742 3.78233 25.4742 4.55819V14.6444L20.8139 9.89224C20.499 9.56896 19.9637 9.53664 19.6174 9.89224L12.5954 17.1336L7.84065 12.2198C7.52576 11.8966 6.99046 11.8642 6.64408 12.2198L1.66889 17.3922V4.55819ZM4.4084 26.7349V26.7026C3.65267 26.7026 2.95992 26.3793 2.45611 25.8621C1.98378 25.3448 1.66889 24.6336 1.66889 23.8578V20.8513V19.8168L7.27386 14.0625L12.0286 18.944C12.3435 19.2672 12.8788 19.2672 13.2252 18.944L20.2471 11.7026L24.8445 16.4547C24.75 16.4871 24.6555 16.5194 24.5611 16.5517C24.4351 16.5841 24.3092 16.6164 24.1517 16.681C24.0258 16.7134 23.8998 16.778 23.7739 16.8103C23.6794 16.8427 23.6164 16.875 23.5219 16.9397C23.396 17.0043 23.3015 17.0366 23.2071 17.1013C23.0496 17.1983 22.8922 17.2953 22.7347 17.3922C22.6403 17.4569 22.5773 17.4892 22.4828 17.5539C22.4198 17.5862 22.3884 17.6185 22.3254 17.6509C22.042 17.8448 21.7901 18.0711 21.5697 18.3297C20.3731 19.5582 19.6174 21.2716 19.6174 23.1789C19.6174 23.6638 19.6803 24.1164 19.7748 24.6013C19.8063 24.7306 19.8378 24.8276 19.8693 24.9569C19.9637 25.2802 20.0582 25.6034 20.1842 25.9267V25.9591C20.3101 26.2177 20.4361 26.5086 20.5935 26.7349H4.4084ZM29.8197 26.7672C28.9065 27.7047 27.6784 28.2543 26.2929 28.2543C24.9704 28.2543 23.7424 27.7047 22.8607 26.8319C22.7347 26.7026 22.6088 26.5409 22.4828 26.4116C22.3884 26.3147 22.2939 26.1853 22.1994 26.0884C22.0735 25.9267 21.979 25.7328 21.8845 25.5388C21.8216 25.4095 21.7586 25.3125 21.6956 25.1832C21.6326 25.0216 21.5697 24.8276 21.5382 24.6336C21.5067 24.5043 21.4437 24.3427 21.4122 24.2134C21.3492 23.8901 21.3177 23.5345 21.3177 23.1789C21.3177 21.7565 21.8845 20.4957 22.7662 19.5582C23.6794 18.6207 24.9074 18.0711 26.2929 18.0711C27.6784 18.0711 28.9065 18.653 29.8197 19.5582C30.7328 20.4634 31.2681 21.7565 31.2681 23.1789C31.2681 24.569 30.7013 25.8297 29.8197 26.7672Z" fill="#999999"/>
<path d="M29.0326 22.2734H27.1118V20.3014C27.1118 19.8165 26.7339 19.4286 26.2616 19.4286C25.7892 19.4286 25.4114 19.8165 25.4114 20.3014V22.2734H23.4906C23.0182 22.2734 22.6404 22.6613 22.6404 23.1463C22.6404 23.6312 23.0182 24.0191 23.4906 24.0191H25.4114V25.9911C25.4114 26.476 25.7892 26.8639 26.2616 26.8639C26.7339 26.8639 27.1118 26.476 27.1118 25.9911V24.0191H29.0326C29.5049 24.0191 29.8827 23.6312 29.8827 23.1463C29.8827 22.6613 29.5049 22.2734 29.0326 22.2734Z" fill="#999999"/>
</svg>
