<svg width="22" height="19" viewBox="0 0 22 19" fill="none" xmlns="http://www.w3.org/2000/svg">
    <path d="M17.875 0.678571V2.71429H13.75V0.678571C13.75 0.480655 13.8073 0.325149 13.9219 0.212054C14.0651 0.0706845 14.237 0 14.4375 0H17.1875C17.388 0 17.5456 0.0706845 17.6602 0.212054C17.8034 0.325149 17.875 0.480655 17.875 0.678571ZM2.75 5.42857C2.75 5.06101 2.87891 4.75 3.13672 4.49554C3.42318 4.2128 3.7526 4.07143 4.125 4.07143H8.25V10.8571H6.875V17.6429C6.875 18.0104 6.73177 18.3214 6.44531 18.5759C6.1875 18.8586 5.8724 19 5.5 19H1.375C1.0026 19 0.673177 18.8586 0.386719 18.5759C0.128906 18.3214 0 18.0104 0 17.6429V15.7768C0.0286458 14.7589 0.128906 13.84 0.300781 13.0201C0.501302 12.1719 0.730469 11.465 0.988281 10.8996C1.24609 10.3058 1.50391 9.75446 1.76172 9.24554C2.01953 8.70833 2.23438 8.12872 2.40625 7.5067C2.60677 6.8564 2.72135 6.16369 2.75 5.42857ZM19.25 5.42857C19.2786 6.30506 19.4219 7.15327 19.6797 7.97321C19.9661 8.76488 20.2669 9.45759 20.582 10.0513C20.9258 10.6168 21.2409 11.4085 21.5273 12.4263C21.8138 13.4159 21.9714 14.5327 22 15.7768V17.6429C22 18.0104 21.8568 18.3214 21.5703 18.5759C21.3125 18.8586 20.9974 19 20.625 19H16.5C16.1276 19 15.7982 18.8586 15.5117 18.5759C15.2539 18.3214 15.125 18.0104 15.125 17.6429V10.8571H13.75V4.07143H17.875C18.1328 4.07143 18.362 4.14211 18.5625 4.28348C18.763 4.39658 18.9206 4.55208 19.0352 4.75C19.1784 4.94792 19.25 5.17411 19.25 5.42857ZM7.5625 0C7.76302 0 7.92057 0.0706845 8.03516 0.212054C8.17838 0.325149 8.25 0.480655 8.25 0.678571V2.71429H4.125V0.678571C4.125 0.480655 4.18229 0.325149 4.29688 0.212054C4.4401 0.0706845 4.61198 0 4.8125 0H7.5625ZM9.625 10.8571V4.07143H12.375V10.8571H9.625Z" fill="#4B88FF"/>
    </svg>
