<svg width="26" height="23" viewBox="0 0 26 23" fill="none" xmlns="http://www.w3.org/2000/svg">
    <path d="M3.80859 3.1317C6.34766 1.0439 9.41146 0 13 0C16.5885 0 19.6523 1.0439 22.1914 3.1317C24.7305 5.21949 26 7.73512 26 10.6786C26 13.622 24.7305 16.1376 22.1914 18.2254C19.6523 20.3132 16.5885 21.3571 13 21.3571C11.1042 21.3571 9.29297 21.032 7.56641 20.3817C5.36589 22.1272 2.97917 23 0.40625 23C0.338542 23 0.270833 22.9658 0.203125 22.8973C0.135417 22.8631 0.0846354 22.8118 0.0507812 22.7433C-0.0169271 22.5722 0 22.4182 0.101562 22.2812C0.236979 22.1786 0.440104 21.939 0.710938 21.5625C1.01562 21.2202 1.40495 20.6384 1.87891 19.817C2.35286 18.9613 2.69141 18.157 2.89453 17.404C0.964844 15.4531 0 13.2113 0 10.6786C0 7.73512 1.26953 5.21949 3.80859 3.1317ZM5.33203 11.8594C5.67057 12.1674 6.0599 12.3214 6.5 12.3214C6.9401 12.3214 7.3125 12.1674 7.61719 11.8594C7.95573 11.5171 8.125 11.1235 8.125 10.6786C8.125 10.2336 7.95573 9.85714 7.61719 9.54911C7.3125 9.20685 6.9401 9.03571 6.5 9.03571C6.0599 9.03571 5.67057 9.20685 5.33203 9.54911C5.02734 9.85714 4.875 10.2336 4.875 10.6786C4.875 11.1235 5.02734 11.5171 5.33203 11.8594ZM11.832 11.8594C12.1706 12.1674 12.5599 12.3214 13 12.3214C13.4401 12.3214 13.8125 12.1674 14.1172 11.8594C14.4557 11.5171 14.625 11.1235 14.625 10.6786C14.625 10.2336 14.4557 9.85714 14.1172 9.54911C13.8125 9.20685 13.4401 9.03571 13 9.03571C12.5599 9.03571 12.1706 9.20685 11.832 9.54911C11.5273 9.85714 11.375 10.2336 11.375 10.6786C11.375 11.1235 11.5273 11.5171 11.832 11.8594ZM18.332 11.8594C18.6706 12.1674 19.0599 12.3214 19.5 12.3214C19.9401 12.3214 20.3125 12.1674 20.6172 11.8594C20.9557 11.5171 21.125 11.1235 21.125 10.6786C21.125 10.2336 20.9557 9.85714 20.6172 9.54911C20.3125 9.20685 19.9401 9.03571 19.5 9.03571C19.0599 9.03571 18.6706 9.20685 18.332 9.54911C18.0273 9.85714 17.875 10.2336 17.875 10.6786C17.875 11.1235 18.0273 11.5171 18.332 11.8594Z" fill="#C4C4C4"/>
    </svg>
