<svg width="19" height="19" viewBox="0 0 19 19" fill="none" xmlns="http://www.w3.org/2000/svg">
<path fill-rule="evenodd" clip-rule="evenodd" d="M17.8798 2.32214C18.2703 1.93161 18.2686 1.30022 17.8759 0.911882L17.2471 0.290099C16.8544 -0.0982398 16.2195 -0.0964679 15.829 0.294056L9.13259 6.99044L2.45865 0.316501C2.06812 -0.0740237 1.43306 -0.0759358 1.04019 0.31223L0.411151 0.933737C0.0182829 1.3219 0.0163823 1.95316 0.406907 2.34368L7.09313 9.0299L0.291745 15.8313C-0.0987798 16.2218 -0.097018 16.8532 0.29568 17.2415L0.924443 17.8633C1.31714 18.2517 1.95207 18.2499 2.34259 17.8594L9.13259 11.0694L15.9441 17.8809C16.3347 18.2714 16.9697 18.2733 17.3626 17.8852L17.9916 17.2637C18.3845 16.8755 18.3864 16.2443 17.9959 15.8537L11.1721 9.02991L17.8798 2.32214Z" fill="#444444"/>
</svg>
