<svg width="20" height="14" viewBox="0 0 20 14" fill="none" xmlns="http://www.w3.org/2000/svg">
<path d="M20 3.03846V2.54018C20 1.14439 18.8644 0.00878906 17.4686 0.00878906H2.53139C1.1356 0.00878906 0 1.14439 0 2.54018V3.03846H20Z" fill="#EE829C"/>
<path d="M0 4.30176H20V5.86336H0V4.30176Z" fill="#EE829C"/>
<path fill-rule="evenodd" clip-rule="evenodd" d="M0 7.12659V10.8275C0 12.2233 1.1356 13.3589 2.53139 13.3589H17.4686C18.8644 13.3589 20 12.2233 20 10.8275V7.12659H0ZM14.6671 10.5127C14.2991 10.5127 14.0008 10.2143 14.0008 9.84633C14.0008 9.47828 14.2991 9.17995 14.6671 9.17995C15.0352 9.17995 15.3335 9.47828 15.3335 9.84633C15.3335 10.2144 15.0352 10.5127 14.6671 10.5127ZM15.8691 9.84633C15.8691 10.2143 16.1674 10.5127 16.5355 10.5127C16.9035 10.5127 17.2019 10.2144 17.2019 9.84633C17.2019 9.47828 16.9035 9.17995 16.5355 9.17995C16.1674 9.17995 15.8691 9.47828 15.8691 9.84633Z" fill="#EE829C"/>
</svg>
