<svg width="19" height="19" viewBox="0 0 19 19" fill="none" xmlns="http://www.w3.org/2000/svg">
    <path d="M2.75806 2.79637C4.62231 0.932124 6.86962 0 9.5 0C12.1304 0 14.3649 0.932124 16.2036 2.79637C18.0679 4.63508 19 6.86962 19 9.5C19 12.1304 18.0679 14.3777 16.2036 16.2419C14.3649 18.0806 12.1304 19 9.5 19C6.86962 19 4.62231 18.0806 2.75806 16.2419C0.919355 14.3777 0 12.1304 0 9.5C0 6.86962 0.919355 4.63508 2.75806 2.79637ZM16.5101 8.96371C16.3824 7.22715 15.7056 5.74597 14.4798 4.52016C13.254 3.29435 11.7729 2.61761 10.0363 2.48992C8.29973 2.33669 6.76747 2.7453 5.43952 3.71573L15.2843 13.5605C16.2547 12.2325 16.6633 10.7003 16.5101 8.96371ZM2.45161 10.0363C2.60484 11.7729 3.29435 13.254 4.52016 14.4798C5.74597 15.7056 7.22715 16.3952 8.96371 16.5484C10.7003 16.6761 12.2325 16.2547 13.5605 15.2843L3.71573 5.43952C2.7453 6.76747 2.32392 8.29973 2.45161 10.0363Z" fill="#444444"/>
    </svg>
