<svg width="28" height="28" viewBox="0 0 28 28" fill="none" xmlns="http://www.w3.org/2000/svg">
    <path d="M25.8975 2.10169C24.9741 1.17585 23.7425 0.666687 22.435 0.666687C21.1275 0.666687 19.8975 1.17502 18.9733 2.10002L4.2458 16.7425C4.1583 16.8292 4.09164 16.9334 4.04997 17.0484L0.716636 26.215C0.609136 26.5109 0.678303 26.845 0.895803 27.0742C1.0558 27.2425 1.27497 27.3334 1.5008 27.3334C1.58247 27.3334 1.66414 27.3217 1.74497 27.2967L10.0358 24.7534C10.1658 24.7142 10.2841 24.6425 10.3808 24.5467L25.8983 9.02919C26.825 8.10502 27.3341 6.87335 27.3341 5.56502C27.3333 4.25752 26.825 3.02669 25.8975 2.10169ZM9.07747 23.3042L5.97414 24.2575C5.7933 23.7267 5.51164 23.2567 5.12747 22.8725C4.7933 22.54 4.4058 22.2817 3.99747 22.0717L5.41747 18.1667H7.33414V19.8334C7.33414 20.2942 7.70664 20.6667 8.16747 20.6667H9.6383L9.07747 23.3042ZM21.3441 11.2259L11.1908 21.3792L11.4825 20.0067C11.5341 19.76 11.4725 19.5042 11.3141 19.3092C11.1558 19.1134 10.9183 19 10.6675 19H9.0008V17.3334C9.0008 16.8734 8.62747 16.5 8.16747 16.5H6.85247L16.7633 6.64585L16.7733 6.65502C17.3833 6.04419 18.1958 5.70835 19.0583 5.70835C19.9208 5.70835 20.7341 6.04419 21.3433 6.65502C21.9525 7.26585 22.2916 8.07752 22.2916 8.94085C22.2916 9.80419 21.9558 10.615 21.3441 11.2259ZM24.7191 7.85085L23.9425 8.62835C23.8675 7.43752 23.3733 6.32752 22.5233 5.47669C21.6725 4.62502 20.5616 4.13169 19.3675 4.05752L20.1491 3.28169L20.1508 3.28002C20.7591 2.66919 21.5716 2.33335 22.435 2.33335C23.2983 2.33335 24.11 2.66919 24.7191 3.28002C25.3308 3.89085 25.6675 4.70252 25.6675 5.56502C25.6675 6.42919 25.3325 7.24085 24.7191 7.85085ZM19.245 7.57752L10.9116 15.9109C10.5858 16.2367 10.5858 16.7634 10.9116 17.0892C11.0733 17.2517 11.2875 17.3334 11.5008 17.3334C11.7141 17.3334 11.9266 17.2517 12.09 17.0892L20.4233 8.75585C20.7491 8.43002 20.7491 7.90335 20.4233 7.57752C20.0966 7.25169 19.5708 7.25169 19.245 7.57752Z" fill="#444444"/>
    </svg>
