<svg width="22" height="19" viewBox="0 0 22 19" fill="none" xmlns="http://www.w3.org/2000/svg">
<path d="M19.8448 1.29992C21.1901 2.43182 21.9057 3.87499 21.9916 5.62943C22.0775 7.38388 21.505 8.8695 20.2742 10.0863L11.9875 18.5755C11.7013 18.8585 11.3721 19 11 19C10.6279 19 10.2987 18.8585 10.0125 18.5755L1.72584 10.0863C0.495008 8.8695 -0.0774714 7.38388 0.00840051 5.62943C0.0942724 3.87499 0.809871 2.43182 2.1552 1.29992C3.32878 0.309504 4.67411 -0.114959 6.19117 0.0265289C7.73687 0.139719 9.05357 0.748115 10.1413 1.85172L11 2.70064L11.8587 1.85172C12.9464 0.748115 14.2488 0.139719 15.7659 0.0265289C17.3116 -0.114959 18.6712 0.309504 19.8448 1.29992Z" fill="url(#paint0_linear)"/>
<defs>
<linearGradient id="paint0_linear" x1="22" y1="-7.59175e-07" x2="-1.46302e-07" y2="19" gradientUnits="userSpaceOnUse">
<stop stop-color="#EBC27E"/>
<stop offset="1" stop-color="#E24A9A"/>
</linearGradient>
</defs>
</svg>
