<svg width="20" height="20" viewBox="0 0 20 20" fill="none" xmlns="http://www.w3.org/2000/svg">
<path fill-rule="evenodd" clip-rule="evenodd" d="M10 0C4.48566 0 0 4.48566 0 10C0 15.5143 4.48566 20 10 20C15.5143 20 20 15.5143 20 10C20 4.48566 15.5143 0 10 0ZM9.58332 16.6667C8.89402 16.6667 8.33332 16.106 8.33332 15.4167C8.33332 14.7274 8.89402 14.1667 9.58332 14.1667C10.2726 14.1667 10.8333 14.7274 10.8333 15.4167C10.8333 16.106 10.2726 16.6667 9.58332 16.6667ZM10.8333 12.9167V11.5837C12.758 11.1939 14.1667 9.49953 14.1667 7.5C14.1667 5.20266 12.2974 3.33332 10 3.33332C7.70262 3.33332 5.83332 5.20262 5.83332 7.5V7.91668C5.83332 8.14699 6.01969 8.33336 6.25 8.33336H7.91664C8.14695 8.33336 8.33332 8.14699 8.33332 7.91668V7.5C8.33332 6.58121 9.08121 5.83332 10 5.83332C10.9188 5.83332 11.6667 6.58121 11.6667 7.5C11.6667 8.41879 10.9188 9.16668 10 9.16668C9.08121 9.16668 8.33332 9.91457 8.33332 10.8334V12.9167C8.33332 13.147 8.51969 13.3334 8.75 13.3334H10.4166C10.647 13.3334 10.8333 13.147 10.8333 12.9167Z" fill="#EE829C"/>
</svg>
