<svg width="20" height="20" viewBox="0 0 20 20" fill="none" xmlns="http://www.w3.org/2000/svg">
<path d="M1.08154 14.4717L3.11113 13.2999L3.69716 14.3149L1.66758 15.4867L1.08154 14.4717Z" fill="#EE829C"/>
<path d="M16.3032 5.68213L18.3328 4.51031L18.9188 5.52533L16.8893 6.69714L16.3032 5.68213Z" fill="#EE829C"/>
<path d="M1.08032 5.52771L1.66636 4.5127L3.69594 5.68451L3.10991 6.69953L1.08032 5.52771Z" fill="#EE829C"/>
<path d="M16.3035 14.3159L16.8895 13.3009L18.9191 14.4727L18.3331 15.4877L16.3035 14.3159Z" fill="#EE829C"/>
<path d="M4.51196 1.66589L5.52698 1.07986L6.69879 3.10944L5.68378 3.69548L4.51196 1.66589Z" fill="#EE829C"/>
<path d="M9.41406 0H10.5859V2.38281H9.41406V0Z" fill="#EE829C"/>
<path d="M13.3008 3.11011L14.4726 1.08052L15.4876 1.66656L14.3158 3.69614L13.3008 3.11011Z" fill="#EE829C"/>
<path d="M0 9.41406H2.38281V10.5859H0V9.41406Z" fill="#EE829C"/>
<path d="M17.6172 9.41406H20V10.5859H17.6172V9.41406Z" fill="#EE829C"/>
<path fill-rule="evenodd" clip-rule="evenodd" d="M10 3.55665C13.5879 3.56223 16.4452 6.4588 16.4452 10C16.4452 12.0991 15.4156 14.1055 13.6917 15.3125H6.30286C6.30202 15.3119 6.30132 15.3113 6.30062 15.3106C6.29989 15.3099 6.29917 15.3091 6.29829 15.3085C4.55013 14.0813 3.55528 12.0909 3.55493 10C3.55438 6.51626 6.32067 3.55095 10 3.55665ZM8.94532 11.9925L9.88259 12.6951L12.3436 9.41411H9.99989L11.0545 8.00763L10.1172 7.30497L7.65614 10.586H9.99989L8.94532 11.9925Z" fill="#EE829C"/>
<path d="M9.99993 20C11.6153 20 12.9296 18.6857 12.9296 17.0703V16.6721C12.9296 16.6085 12.946 16.5471 12.9541 16.4844H7.04419C7.05298 16.5497 7.07024 16.6136 7.07024 16.6801V17.0703C7.07024 18.6857 8.38458 20 9.99993 20Z" fill="#EE829C"/>
</svg>
