<svg width="375" height="812" viewBox="0 0 375 812" fill="none" xmlns="http://www.w3.org/2000/svg">
    <g opacity="0.25">
    <mask id="mask0" mask-type="alpha" maskUnits="userSpaceOnUse" x="0" y="0" width="375" height="812">
    <rect width="375" height="812" fill="white"/>
    </mask>
    <g mask="url(#mask0)">
    <path d="M100.275 637.665L100.276 637.665C102.67 638.105 104.518 639.345 105.844 641.406C107.171 643.467 107.518 645.635 106.899 647.945L106.899 647.945L106.897 647.954L102.698 664.82C102.576 665.271 102.342 665.575 101.999 665.773C101.656 665.971 101.276 666.022 100.823 665.902L84.1176 661.105L84.1176 661.105L84.109 661.103C81.7989 660.484 80.0947 659.099 78.9733 656.92C77.8517 654.74 77.7015 652.521 78.5182 650.227L78.5184 650.226C79.2248 648.233 80.5156 646.816 82.4092 645.949L82.4093 645.949L82.4184 645.944C84.3413 645.016 86.3253 644.844 88.394 645.427L88.394 645.427L88.4003 645.429L90.1093 645.887L90.5922 646.016L90.7216 645.533L91.1796 643.825L91.1796 643.825L91.1812 643.818C91.7112 641.732 92.8359 640.112 94.5632 638.933L94.5633 638.933L94.5702 638.928C96.3067 637.699 98.1981 637.281 100.275 637.665Z" stroke="#E24A9A"/>
    <path d="M107.008 437.721L107.009 437.721C109.403 438.16 111.25 439.4 112.577 441.461C113.904 443.522 114.251 445.69 113.632 448L113.632 448L113.63 448.009L109.431 464.875C109.309 465.327 109.075 465.631 108.732 465.829C108.389 466.027 108.009 466.078 107.556 465.957L90.8505 461.16L90.8505 461.16L90.8419 461.158C88.5318 460.539 86.8276 459.155 85.7062 456.975C84.5846 454.796 84.4344 452.576 85.2511 450.282L85.2513 450.282C85.9577 448.289 87.2485 446.872 89.1422 446.004L89.1422 446.004L89.1513 446C91.0742 445.072 93.0582 444.9 95.127 445.483L95.1269 445.483L95.1332 445.485L96.8422 445.942L97.3251 446.072L97.4546 445.589L97.9125 443.88L97.9125 443.88L97.9141 443.874C98.4441 441.788 99.5688 440.167 101.296 438.988L101.296 438.988L101.303 438.983C103.04 437.754 104.931 437.336 107.008 437.721Z" stroke="#E24A9A"/>
    <path d="M276.008 534.721L276.009 534.721C278.403 535.16 280.25 536.4 281.577 538.461C282.904 540.522 283.251 542.69 282.632 545L282.632 545L282.63 545.009L278.431 561.875C278.309 562.327 278.075 562.631 277.732 562.829C277.389 563.027 277.009 563.078 276.556 562.957L259.85 558.16L259.851 558.16L259.842 558.158C257.532 557.539 255.828 556.155 254.706 553.975C253.585 551.796 253.434 549.576 254.251 547.282L254.251 547.282C254.958 545.289 256.249 543.872 258.142 543.004L258.142 543.004L258.151 543C260.074 542.072 262.058 541.9 264.127 542.483L264.127 542.483L264.133 542.485L265.842 542.942L266.325 543.072L266.455 542.589L266.912 540.88L266.913 540.88L266.914 540.874C267.444 538.788 268.569 537.167 270.296 535.988L270.296 535.988L270.303 535.983C272.04 534.754 273.931 534.336 276.008 534.721Z" stroke="#E24A9A"/>
    <path d="M23.8356 550.7C23.7225 550.369 23.3628 550.192 23.0315 550.305C22.8698 550.36 22.6842 550.338 22.5231 550.245C22.3616 550.152 22.25 550.002 22.2172 549.835C22.1821 549.658 22.0678 549.499 21.9121 549.409C21.7564 549.319 21.5614 549.299 21.3911 549.358C21.2294 549.413 21.0438 549.391 20.8824 549.298C20.7212 549.205 20.6096 549.055 20.5768 548.888C20.5089 548.544 20.1759 548.321 19.8325 548.389C19.4893 548.457 19.2658 548.79 19.3336 549.133C19.4372 549.659 19.7712 550.12 20.2489 550.395C20.5421 550.565 20.8678 550.652 21.1933 550.654C21.3581 550.935 21.5967 551.174 21.8896 551.343C22.3676 551.619 22.9329 551.678 23.4407 551.504C23.7718 551.391 23.9485 551.031 23.8356 550.7Z" fill="#EBC27E"/>
    <path d="M12.8179 542.907C12.515 542.733 12.1276 542.836 11.9525 543.139C11.7777 543.442 11.8815 543.83 12.1844 544.005L13.6262 544.837C13.9291 545.012 14.3167 544.908 14.4916 544.605C14.6666 544.302 14.5626 543.915 14.2597 543.74L12.8179 542.907Z" fill="#EBC27E"/>
    <path d="M15.7215 542.924L16.4257 541.705C16.6008 541.401 16.4967 541.014 16.1939 540.839C15.891 540.664 15.5036 540.768 15.3285 541.071L14.6243 542.291C14.4492 542.594 14.5533 542.981 14.8561 543.156C15.159 543.331 15.5465 543.228 15.7215 542.924Z" fill="#EBC27E"/>
    <path d="M30.0146 554.299L31.4564 555.131C31.7593 555.306 32.1469 555.202 32.3218 554.9C32.4968 554.596 32.3928 554.209 32.0899 554.034L30.6481 553.202C30.3449 553.027 29.9578 553.131 29.7827 553.434C29.6079 553.737 29.7115 554.124 30.0146 554.299Z" fill="#EBC27E"/>
    <path d="M31.7208 552.162L32.425 550.942C32.6 550.639 32.496 550.251 32.1931 550.076C31.8903 549.902 31.5028 550.005 31.3278 550.308L30.6235 551.528C30.4485 551.831 30.5525 552.219 30.8554 552.393C31.1583 552.568 31.5457 552.465 31.7208 552.162Z" fill="#EBC27E"/>
    <path d="M9.69368 532.816C8.00368 534.269 6.55258 536.013 5.40523 538C2.73424 542.626 2.02448 548.016 3.4074 553.176C4.79003 558.336 8.09945 562.65 12.7257 565.32C16.5908 567.552 20.9675 568.417 25.382 567.822C25.7289 567.776 25.9721 567.457 25.9254 567.11C25.8785 566.763 25.5598 566.52 25.2129 566.567C21.0784 567.124 16.9794 566.313 13.3592 564.223C9.0258 561.721 5.92613 557.682 4.63105 552.848C3.33597 548.015 4.00054 542.967 6.50244 538.633C8.18561 535.718 10.7087 533.228 13.6874 531.588C13.6903 531.586 13.6939 531.585 13.697 531.583C19.3411 528.45 26.4485 528.532 32.0394 531.746L32.0923 531.777C36.416 534.262 39.6425 538.541 40.8759 543.369C42.0768 548.07 41.3729 553.168 38.949 557.367C36.4499 561.695 32.4154 564.793 27.5883 566.091C27.2504 566.182 27.0503 566.529 27.141 566.867C27.232 567.205 27.5794 567.405 27.9174 567.314C33.0705 565.929 37.3782 562.621 40.0462 558C41.1936 556.013 41.9778 553.884 42.391 551.695C44.4501 551.538 46.3213 550.376 47.3634 548.572C49.0957 545.571 48.0642 541.72 45.0635 539.988C43.7339 539.22 42.2112 538.971 40.7222 539.264C38.995 535.687 36.2411 532.709 32.7257 530.679C29.2104 528.65 25.2542 527.754 21.2928 528.047C20.8021 526.61 19.8247 525.416 18.4955 524.649C17.3823 524.006 16.1176 523.723 14.8384 523.829C14.4897 523.858 14.2307 524.164 14.2596 524.513C14.2885 524.861 14.5947 525.121 14.9432 525.092C15.9641 525.007 16.9732 525.233 17.8619 525.746C18.8374 526.31 19.5761 527.16 19.9935 528.184C19.5978 528.24 19.2027 528.308 18.8083 528.388C18.5539 528.439 17.9618 528.576 17.919 528.587C17.674 528.022 17.255 527.546 16.7112 527.232C15.326 526.432 13.5483 526.909 12.7485 528.294C12.3107 529.052 12.2497 529.968 12.5515 530.771C11.9156 531.146 11.303 531.555 10.7143 531.997C10.1301 530.571 10.2272 528.937 11.0092 527.582C11.4463 526.825 12.0767 526.193 12.8314 525.755C13.1341 525.579 13.237 525.192 13.0612 524.889C12.8858 524.587 12.4983 524.484 12.1955 524.659C11.2495 525.208 10.4598 526 9.91194 526.949C8.86984 528.754 8.79935 530.955 9.69368 532.816ZM42.7012 546.91C42.684 546.609 42.6601 546.307 42.6291 546.006C42.5513 545.243 42.4277 544.461 42.2586 543.704C42.5457 543.701 42.8309 543.775 43.0852 543.922C43.8652 544.372 44.1335 545.374 43.683 546.154C43.4664 546.529 43.1086 546.797 42.7012 546.91ZM44.43 541.085C46.8256 542.468 47.6493 545.542 46.2662 547.938C45.4843 549.292 44.1174 550.194 42.5906 550.401C42.6786 549.67 42.7274 548.934 42.7335 548.196C43.5802 548.056 44.3426 547.546 44.7804 546.787C45.5802 545.402 45.1039 543.624 43.7186 542.825C43.1749 542.511 42.5528 542.386 41.9411 542.456C41.857 542.164 41.7796 541.869 41.669 541.586C41.5405 541.205 41.4024 540.828 41.2525 540.458C42.3483 540.307 43.4545 540.522 44.43 541.085ZM13.8459 528.927C14.2963 528.147 15.2974 527.879 16.0778 528.329C16.3321 528.476 16.5384 528.686 16.6799 528.936C16.6745 528.937 16.6692 528.939 16.6636 528.941C15.9281 529.174 15.2048 529.449 14.5012 529.766C14.2246 529.89 13.9515 530.02 13.6818 530.156C13.5759 529.747 13.6291 529.303 13.8459 528.927Z" fill="#EBC27E"/>
    <path d="M26.2815 547.517C26.2815 547.517 26.2815 547.517 26.2816 547.517C25.7409 546.685 25.0283 546.01 24.1631 545.51C23.2979 545.011 22.3567 544.731 21.3659 544.679L21.3654 544.679C19.0012 544.556 16.7978 545.752 15.6151 547.801C13.8901 550.789 14.9175 554.623 17.9057 556.348C20.8936 558.074 24.7282 557.046 26.4532 554.058C27.6359 552.01 27.5701 549.503 26.2815 547.517C26.2817 547.518 26.2817 547.518 26.2815 547.517ZM24.8876 547.755C24.277 548.131 23.4732 548.139 22.8523 547.781C22.2308 547.422 21.8362 546.723 21.8572 546.005C22.4433 546.102 23.0039 546.304 23.5296 546.608C24.0554 546.911 24.5103 547.296 24.8876 547.755ZM25.356 553.425C23.9802 555.808 20.9222 556.627 18.5392 555.251C16.1562 553.875 15.3365 550.817 16.7123 548.434C17.5362 547.007 18.9811 546.099 20.5903 545.957C20.5902 545.959 20.5903 545.962 20.5903 545.964C20.5678 546.684 20.7922 547.405 21.2189 547.985C21.4858 548.347 21.8289 548.653 22.2186 548.878C22.5986 549.098 23.0235 549.24 23.4592 549.293C24.1752 549.38 24.939 549.218 25.5545 548.833C25.5571 548.831 25.56 548.83 25.5626 548.828C26.2444 550.292 26.1799 551.998 25.356 553.425Z" fill="#EBC27E"/>
    <path d="M372.43 468.058C372.081 468.082 371.817 468.384 371.84 468.733C371.852 468.903 371.783 469.077 371.651 469.209C371.519 469.34 371.346 469.409 371.175 469.398C370.996 469.386 370.812 469.455 370.685 469.582C370.558 469.709 370.488 469.893 370.501 470.072C370.512 470.243 370.443 470.416 370.312 470.548C370.18 470.68 370.006 470.749 369.836 470.737C369.487 470.714 369.185 470.978 369.161 471.327C369.138 471.676 369.402 471.978 369.751 472.001C370.286 472.038 370.817 471.834 371.207 471.444C371.447 471.205 371.615 470.913 371.702 470.599C372.016 470.512 372.308 470.344 372.547 470.104C372.937 469.714 373.14 469.183 373.104 468.648C373.081 468.299 372.779 468.035 372.43 468.058Z" fill="#EBC27E"/>
    <path d="M362.051 476.684C361.804 476.931 361.804 477.332 362.051 477.58C362.299 477.827 362.7 477.827 362.947 477.58L364.124 476.402C364.372 476.155 364.372 475.754 364.124 475.507C363.877 475.259 363.476 475.259 363.229 475.507L362.051 476.684Z" fill="#EBC27E"/>
    <path d="M362.819 473.884L361.823 472.888C361.576 472.64 361.175 472.64 360.927 472.888C360.68 473.135 360.68 473.536 360.927 473.784L361.923 474.779C362.171 475.027 362.572 475.027 362.819 474.779C363.066 474.532 363.067 474.131 362.819 473.884Z" fill="#EBC27E"/>
    <path d="M375.882 460.82L374.887 459.824C374.639 459.577 374.238 459.577 373.991 459.824C373.743 460.072 373.743 460.473 373.991 460.72L374.987 461.716C375.234 461.964 375.635 461.963 375.882 461.716C376.13 461.469 376.13 461.068 375.882 460.82Z" fill="#EBC27E"/>
    <path d="M351.495 477.09C352.462 479.098 353.77 480.951 355.393 482.574C359.17 486.351 364.192 488.432 369.535 488.431C374.877 488.431 379.899 486.351 383.677 482.574C386.833 479.418 388.801 475.414 389.369 470.996C389.414 470.649 389.169 470.332 388.822 470.287C388.474 470.242 388.157 470.487 388.112 470.835C387.58 474.972 385.737 478.722 382.781 481.678C379.243 485.216 374.538 487.165 369.535 487.165C364.531 487.165 359.827 485.216 356.288 481.678C353.908 479.298 352.156 476.216 351.342 472.914C351.342 472.911 351.342 472.907 351.34 472.904C349.775 466.641 351.694 459.797 356.245 455.229L356.288 455.185C359.808 451.652 364.776 449.643 369.76 449.701C374.611 449.758 379.353 451.757 382.781 455.185C386.315 458.72 388.263 463.418 388.267 468.417C388.268 468.767 388.552 469.05 388.901 469.05C389.251 469.049 389.534 468.766 389.534 468.416C389.53 463.08 387.45 458.063 383.677 454.289C382.054 452.667 380.201 451.359 378.193 450.393C378.575 448.363 377.937 446.255 376.463 444.781C374.014 442.331 370.027 442.331 367.577 444.781C366.492 445.867 365.856 447.273 365.754 448.787C361.852 449.53 358.263 451.419 355.393 454.289C352.522 457.16 350.633 460.749 349.891 464.651C348.376 464.754 346.97 465.389 345.884 466.474C344.975 467.383 344.375 468.531 344.146 469.794C344.084 470.139 344.312 470.468 344.657 470.53C345.001 470.593 345.331 470.364 345.393 470.02C345.575 469.012 346.055 468.096 346.781 467.37C347.577 466.574 348.59 466.08 349.687 465.942C349.638 466.339 349.602 466.738 349.577 467.14C349.561 467.399 349.54 468.006 349.539 468.05C348.93 468.141 348.362 468.422 347.918 468.866C346.787 469.997 346.787 471.838 347.918 472.969C348.537 473.588 349.405 473.884 350.26 473.8C350.457 474.511 350.694 475.209 350.968 475.892C349.44 476.087 347.886 475.57 346.78 474.464C346.162 473.846 345.715 473.074 345.487 472.231C345.395 471.894 345.048 471.694 344.71 471.785C344.372 471.877 344.173 472.224 344.264 472.562C344.549 473.618 345.11 474.586 345.884 475.36C347.358 476.834 349.466 477.472 351.495 477.09ZM373.652 448.855C373.357 448.793 373.059 448.738 372.76 448.69C372.003 448.568 371.215 448.485 370.44 448.452C370.512 448.174 370.657 447.918 370.865 447.71C371.502 447.074 372.539 447.074 373.176 447.711C373.482 448.017 373.648 448.432 373.652 448.855ZM368.473 445.677C370.429 443.721 373.612 443.721 375.568 445.677C376.673 446.783 377.19 448.337 376.995 449.865C376.312 449.591 375.614 449.353 374.903 449.156C374.987 448.302 374.691 447.434 374.071 446.815C372.94 445.684 371.1 445.684 369.969 446.815C369.525 447.259 369.244 447.827 369.153 448.436C368.849 448.442 368.544 448.44 368.242 448.474C367.841 448.499 367.441 448.535 367.045 448.584C367.183 447.487 367.676 446.474 368.473 445.677ZM348.813 472.072C348.177 471.436 348.176 470.399 348.813 469.762C349.021 469.554 349.278 469.409 349.555 469.337C349.555 469.343 349.556 469.348 349.556 469.354C349.591 470.125 349.669 470.895 349.793 471.657C349.841 471.956 349.896 472.253 349.958 472.549C349.535 472.545 349.12 472.379 348.813 472.072Z" fill="#EBC27E"/>
    <path d="M369.989 464.872C369.989 464.872 369.989 464.872 369.989 464.872C369.045 465.179 368.208 465.692 367.502 466.399C366.795 467.105 366.282 467.942 365.975 468.886L365.975 468.886C365.244 471.138 365.829 473.576 367.502 475.248C369.942 477.688 373.911 477.688 376.351 475.248C378.791 472.809 378.791 468.839 376.351 466.399C374.679 464.727 372.241 464.142 369.989 464.872C369.989 464.872 369.989 464.872 369.989 464.872ZM369.857 466.28C370.063 466.967 369.863 467.746 369.356 468.253C368.848 468.76 368.071 468.96 367.383 468.754C367.629 468.213 367.969 467.724 368.398 467.295C368.827 466.866 369.316 466.526 369.857 466.28ZM375.455 467.295C377.401 469.241 377.401 472.407 375.455 474.352C373.51 476.298 370.343 476.298 368.398 474.353C367.233 473.187 366.729 471.557 367.009 469.966C367.011 469.966 367.013 469.967 367.016 469.967C367.705 470.176 368.459 470.145 369.13 469.883C369.549 469.719 369.934 469.467 370.252 469.149C370.562 468.839 370.81 468.465 370.974 468.058C371.243 467.389 371.284 466.609 371.071 465.915C371.07 465.912 371.07 465.909 371.069 465.906C372.66 465.626 374.29 466.13 375.455 467.295Z" fill="#EBC27E"/>
    <path d="M331.43 647.058C331.081 647.082 330.817 647.384 330.84 647.733C330.852 647.903 330.783 648.077 330.651 648.209C330.519 648.34 330.346 648.409 330.175 648.398C329.996 648.386 329.812 648.455 329.685 648.582C329.558 648.709 329.488 648.893 329.501 649.072C329.512 649.243 329.443 649.416 329.312 649.548C329.18 649.68 329.006 649.749 328.836 649.737C328.487 649.714 328.185 649.978 328.161 650.327C328.138 650.676 328.402 650.978 328.751 651.001C329.286 651.038 329.817 650.834 330.207 650.444C330.447 650.205 330.615 649.913 330.702 649.599C331.016 649.512 331.308 649.344 331.547 649.104C331.937 648.714 332.14 648.183 332.104 647.648C332.081 647.299 331.779 647.035 331.43 647.058Z" fill="#E24A9A"/>
    <path d="M321.051 655.684C320.804 655.931 320.804 656.332 321.051 656.58C321.299 656.827 321.7 656.827 321.947 656.58L323.124 655.403C323.372 655.155 323.372 654.754 323.124 654.507C322.877 654.259 322.476 654.259 322.229 654.507L321.051 655.684Z" fill="#E24A9A"/>
    <path d="M321.819 652.884L320.823 651.888C320.576 651.64 320.175 651.64 319.927 651.888C319.68 652.135 319.68 652.536 319.927 652.784L320.923 653.779C321.171 654.027 321.572 654.027 321.819 653.779C322.066 653.532 322.067 653.131 321.819 652.884Z" fill="#E24A9A"/>
    <path d="M336.506 642.021L337.683 640.844C337.93 640.597 337.93 640.196 337.683 639.948C337.435 639.701 337.034 639.701 336.787 639.948L335.61 641.126C335.362 641.373 335.362 641.774 335.61 642.021C335.857 642.269 336.258 642.269 336.506 642.021Z" fill="#E24A9A"/>
    <path d="M334.882 639.82L333.887 638.824C333.639 638.577 333.238 638.577 332.991 638.824C332.743 639.072 332.743 639.473 332.991 639.72L333.987 640.716C334.234 640.964 334.635 640.963 334.882 640.716C335.13 640.469 335.13 640.068 334.882 639.82Z" fill="#E24A9A"/>
    <path d="M310.495 656.09C311.462 658.098 312.77 659.951 314.393 661.574C318.17 665.351 323.192 667.432 328.535 667.431C333.877 667.431 338.899 665.351 342.677 661.574C345.833 658.418 347.801 654.414 348.369 649.996C348.414 649.649 348.169 649.332 347.822 649.287C347.474 649.242 347.157 649.487 347.112 649.835C346.58 653.972 344.737 657.722 341.781 660.678C338.243 664.216 333.538 666.165 328.535 666.165C323.531 666.165 318.827 664.216 315.288 660.678C312.908 658.298 311.156 655.216 310.342 651.914C310.342 651.911 310.342 651.907 310.34 651.904C308.775 645.641 310.694 638.797 315.245 634.229L315.288 634.185C318.808 630.652 323.776 628.643 328.76 628.701C333.611 628.758 338.353 630.757 341.781 634.185C345.315 637.72 347.263 642.418 347.267 647.417C347.268 647.767 347.552 648.05 347.901 648.05C348.251 648.049 348.534 647.766 348.534 647.416C348.53 642.08 346.45 637.063 342.677 633.289C341.054 631.667 339.201 630.359 337.193 629.393C337.575 627.363 336.937 625.255 335.463 623.781C333.014 621.331 329.027 621.331 326.577 623.781C325.492 624.867 324.856 626.273 324.754 627.787C320.852 628.53 317.263 630.419 314.393 633.289C311.522 636.16 309.633 639.749 308.891 643.651C307.376 643.754 305.97 644.389 304.884 645.474C303.975 646.383 303.375 647.531 303.146 648.794C303.084 649.139 303.312 649.468 303.657 649.53C304.001 649.593 304.331 649.364 304.393 649.02C304.575 648.012 305.055 647.096 305.781 646.37C306.577 645.574 307.59 645.08 308.687 644.942C308.638 645.339 308.602 645.738 308.577 646.14C308.561 646.399 308.54 647.006 308.539 647.05C307.93 647.141 307.362 647.422 306.918 647.866C305.787 648.997 305.787 650.838 306.918 651.969C307.537 652.588 308.405 652.884 309.26 652.8C309.457 653.511 309.694 654.209 309.968 654.892C308.44 655.087 306.886 654.57 305.78 653.464C305.162 652.846 304.715 652.074 304.487 651.231C304.395 650.894 304.048 650.694 303.71 650.785C303.372 650.877 303.173 651.224 303.264 651.562C303.549 652.618 304.11 653.586 304.884 654.36C306.358 655.834 308.466 656.472 310.495 656.09ZM332.652 627.855C332.357 627.793 332.059 627.738 331.76 627.69C331.003 627.568 330.215 627.485 329.44 627.452C329.512 627.174 329.657 626.918 329.865 626.71C330.502 626.074 331.539 626.074 332.176 626.711C332.482 627.017 332.648 627.432 332.652 627.855ZM327.473 624.677C329.429 622.721 332.612 622.721 334.568 624.677C335.673 625.783 336.19 627.337 335.995 628.865C335.312 628.591 334.614 628.353 333.903 628.156C333.987 627.302 333.691 626.434 333.071 625.815C331.94 624.684 330.1 624.684 328.969 625.815C328.525 626.259 328.244 626.827 328.153 627.436C327.849 627.442 327.544 627.44 327.242 627.474C326.841 627.499 326.441 627.535 326.045 627.584C326.183 626.487 326.676 625.474 327.473 624.677ZM307.813 651.072C307.177 650.436 307.176 649.399 307.813 648.762C308.021 648.554 308.278 648.409 308.555 648.337C308.555 648.343 308.556 648.348 308.556 648.354C308.591 649.125 308.669 649.895 308.793 650.657C308.841 650.956 308.896 651.253 308.958 651.549C308.535 651.545 308.12 651.379 307.813 651.072Z" fill="#E24A9A"/>
    <path d="M328.989 643.872C328.989 643.872 328.989 643.872 328.989 643.872C328.045 644.179 327.208 644.692 326.502 645.399C325.795 646.105 325.282 646.942 324.975 647.886L324.975 647.886C324.244 650.138 324.829 652.576 326.502 654.248C328.942 656.688 332.911 656.688 335.351 654.248C337.791 651.809 337.791 647.839 335.351 645.399C333.679 643.727 331.241 643.141 328.989 643.872C328.989 643.872 328.989 643.872 328.989 643.872ZM328.857 645.28C329.063 645.967 328.863 646.746 328.356 647.253C327.848 647.76 327.071 647.96 326.383 647.754C326.629 647.213 326.969 646.724 327.398 646.295C327.827 645.865 328.316 645.526 328.857 645.28ZM334.455 646.295C336.401 648.241 336.401 651.407 334.455 653.352C332.51 655.298 329.343 655.298 327.398 653.352C326.233 652.187 325.729 650.557 326.009 648.966C326.011 648.966 326.013 648.967 326.016 648.967C326.705 649.176 327.459 649.145 328.13 648.883C328.549 648.719 328.934 648.467 329.252 648.149C329.562 647.838 329.81 647.465 329.974 647.058C330.243 646.389 330.284 645.609 330.071 644.915C330.07 644.912 330.07 644.909 330.069 644.906C331.66 644.626 333.29 645.13 334.455 646.295Z" fill="#E24A9A"/>
    <path d="M54.5414 769.132C54.4283 768.8 54.0686 768.624 53.7373 768.737C53.5756 768.792 53.39 768.77 53.2289 768.677C53.0674 768.584 52.9558 768.434 52.923 768.267C52.8879 768.09 52.7736 767.931 52.6179 767.841C52.4622 767.751 52.2672 767.731 52.097 767.79C51.9352 767.845 51.7497 767.823 51.5882 767.73C51.4271 767.637 51.3154 767.487 51.2826 767.319C51.2147 766.976 50.8818 766.753 50.5383 766.82C50.1951 766.888 49.9716 767.221 50.0394 767.564C50.1431 768.091 50.477 768.551 50.9547 768.827C51.2479 768.996 51.5736 769.083 51.8991 769.086C52.0639 769.366 52.3025 769.605 52.5954 769.774C53.0734 770.05 53.6387 770.109 54.1465 769.936C54.4776 769.823 54.6543 769.463 54.5414 769.132Z" fill="#E24A9A"/>
    <path d="M43.5237 761.339C43.2208 761.164 42.8334 761.268 42.6584 761.571C42.4835 761.874 42.5874 762.261 42.8902 762.436L44.332 763.269C44.6349 763.444 45.0225 763.34 45.1974 763.037C45.3724 762.734 45.2684 762.346 44.9655 762.172L43.5237 761.339Z" fill="#E24A9A"/>
    <path d="M46.4272 761.356L47.1314 760.136C47.3065 759.833 47.2024 759.446 46.8996 759.271C46.5967 759.096 46.2092 759.2 46.0342 759.503L45.33 760.722C45.1549 761.026 45.259 761.413 45.5618 761.588C45.8647 761.763 46.2521 761.659 46.4272 761.356Z" fill="#E24A9A"/>
    <path d="M60.7204 772.731L62.1622 773.563C62.4651 773.738 62.8527 773.634 63.0276 773.331C63.2026 773.028 63.0986 772.641 62.7957 772.466L61.3539 771.633C61.0507 771.458 60.6636 771.562 60.4886 771.865C60.3137 772.168 60.4173 772.556 60.7204 772.731Z" fill="#E24A9A"/>
    <path d="M62.4266 770.593L63.1308 769.373C63.3058 769.07 63.2018 768.683 62.8989 768.508C62.5961 768.333 62.2086 768.437 62.0336 768.74L61.3294 769.96C61.1543 770.263 61.2583 770.65 61.5612 770.825C61.8641 771 62.2515 770.896 62.4266 770.593Z" fill="#E24A9A"/>
    <path d="M40.3995 751.248C38.7095 752.701 37.2584 754.444 36.111 756.432C33.4401 761.058 32.7303 766.448 34.1132 771.608C35.4958 776.768 38.8053 781.081 43.4315 783.752C47.2966 785.984 51.6733 786.849 56.0878 786.254C56.4347 786.207 56.678 785.888 56.6312 785.542C56.5843 785.195 56.2656 784.952 55.9187 784.998C51.7842 785.555 47.6853 784.745 44.065 782.655C39.7316 780.153 36.6319 776.113 35.3369 771.28C34.0418 766.447 34.7064 761.399 37.2083 757.065C38.8914 754.15 41.4145 751.66 44.3932 750.019C44.3961 750.018 44.3997 750.017 44.4028 750.015C50.0469 746.882 57.1544 746.964 62.7452 750.178L62.7981 750.208C67.1218 752.694 70.3483 756.973 71.5817 761.801C72.7826 766.502 72.0787 771.6 69.6548 775.798C67.1558 780.127 63.1212 783.225 58.2941 784.522C57.9562 784.613 57.7561 784.961 57.8468 785.298C57.9378 785.636 58.2852 785.836 58.6232 785.746C63.7763 784.361 68.084 781.053 70.7521 776.432C71.8994 774.444 72.6836 772.316 73.0968 770.126C75.156 769.97 77.0271 768.808 78.0692 767.003C79.8015 764.003 78.77 760.152 75.7693 758.42C74.4398 757.652 72.917 757.403 71.428 757.696C69.7008 754.119 66.9469 751.141 63.4315 749.111C59.9162 747.082 55.96 746.186 51.9986 746.479C51.5079 745.042 50.5306 743.848 49.2013 743.081C48.0881 742.438 46.8234 742.155 45.5442 742.261C45.1955 742.29 44.9365 742.596 44.9654 742.944C44.9943 743.293 45.3005 743.552 45.649 743.524C46.6699 743.439 47.6791 743.665 48.5677 744.178C49.5432 744.741 50.2819 745.592 50.6994 746.616C50.3036 746.671 49.9085 746.74 49.5141 746.819C49.2597 746.871 48.6676 747.008 48.6248 747.019C48.3798 746.454 47.9608 745.978 47.417 745.664C46.0318 744.864 44.2541 745.34 43.4543 746.726C43.0165 747.484 42.9555 748.399 43.2573 749.203C42.6214 749.577 42.0088 749.987 41.4201 750.428C40.836 749.003 40.933 747.368 41.715 746.014C42.1521 745.257 42.7825 744.625 43.5373 744.187C43.8399 744.011 43.9428 743.623 43.767 743.321C43.5916 743.018 43.2041 742.915 42.9013 743.091C41.9553 743.64 41.1656 744.432 40.6178 745.381C39.5757 747.186 39.5052 749.387 40.3995 751.248ZM73.407 765.342C73.3898 765.041 73.3659 764.739 73.3349 764.437C73.2571 763.675 73.1335 762.892 72.9645 762.135C73.2515 762.133 73.5367 762.207 73.791 762.354C74.571 762.804 74.8394 763.805 74.3888 764.586C74.1722 764.961 73.8144 765.229 73.407 765.342ZM75.1358 759.517C77.5314 760.9 78.3551 763.974 76.972 766.37C76.1901 767.724 74.8232 768.625 73.2964 768.832C73.3845 768.102 73.4332 767.366 73.4393 766.628C74.286 766.488 75.0484 765.977 75.4862 765.219C76.286 763.834 75.8097 762.056 74.4244 761.256C73.8807 760.942 73.2586 760.818 72.6469 760.888C72.5629 760.596 72.4854 760.301 72.3748 760.018C72.2463 759.636 72.1082 759.26 71.9583 758.89C73.0541 758.739 74.1603 758.954 75.1358 759.517ZM44.5517 747.359C45.0021 746.579 46.0032 746.31 46.7836 746.761C47.0379 746.908 47.2442 747.118 47.3857 747.368C47.3803 747.369 47.375 747.371 47.3695 747.373C46.634 747.606 45.9106 747.88 45.207 748.197C44.9304 748.322 44.6573 748.451 44.3877 748.587C44.2817 748.178 44.3349 747.734 44.5517 747.359Z" fill="#E24A9A"/>
    <path d="M56.9873 765.949C56.9873 765.949 56.9873 765.949 56.9874 765.949C56.4467 765.117 55.7341 764.442 54.8689 763.942C54.0037 763.442 53.0625 763.163 52.0717 763.111L52.0712 763.111C49.7071 762.988 47.5036 764.184 46.3209 766.232C44.5959 769.22 45.6233 773.055 48.6115 774.78C51.5994 776.505 55.434 775.478 57.159 772.49C58.3417 770.441 58.2759 767.935 56.9873 765.949C56.9876 765.949 56.9876 765.949 56.9873 765.949ZM55.5934 766.186C54.9828 766.563 54.179 766.571 53.5581 766.212C52.9366 765.854 52.5421 765.155 52.563 764.437C53.1491 764.534 53.7097 764.736 54.2354 765.039C54.7612 765.343 55.2161 765.727 55.5934 766.186ZM56.0618 771.856C54.686 774.239 51.628 775.059 49.245 773.683C46.862 772.307 46.0423 769.249 47.4181 766.866C48.242 765.439 49.6869 764.531 51.2961 764.389C51.296 764.391 51.2961 764.393 51.2961 764.396C51.2736 765.116 51.498 765.836 51.9247 766.417C52.1916 766.779 52.5347 767.085 52.9244 767.31C53.3045 767.529 53.7293 767.672 54.165 767.725C54.881 767.812 55.6448 767.65 56.2603 767.264C56.2629 767.262 56.2658 767.261 56.2684 767.26C56.9502 768.724 56.8857 770.429 56.0618 771.856Z" fill="#E24A9A"/>
    <path d="M197.836 373.832C197.722 373.501 197.363 373.324 197.032 373.437C196.87 373.492 196.684 373.47 196.523 373.377C196.362 373.284 196.25 373.134 196.217 372.967C196.182 372.79 196.068 372.631 195.912 372.541C195.756 372.451 195.561 372.431 195.391 372.49C195.229 372.545 195.044 372.523 194.882 372.43C194.721 372.337 194.61 372.187 194.577 372.02C194.509 371.676 194.176 371.453 193.833 371.521C193.489 371.588 193.266 371.921 193.334 372.265C193.437 372.791 193.771 373.251 194.249 373.527C194.542 373.696 194.868 373.784 195.193 373.786C195.358 374.067 195.597 374.305 195.89 374.474C196.368 374.75 196.933 374.809 197.441 374.636C197.772 374.523 197.948 374.163 197.836 373.832Z" fill="#EBC27E"/>
    <path d="M186.818 366.039C186.515 365.864 186.128 365.968 185.953 366.271C185.778 366.574 185.882 366.962 186.184 367.137L187.626 367.969C187.929 368.144 188.317 368.04 188.492 367.737C188.667 367.434 188.563 367.047 188.26 366.872L186.818 366.039Z" fill="#EBC27E"/>
    <path d="M189.721 366.056L190.426 364.836C190.601 364.533 190.497 364.146 190.194 363.971C189.891 363.796 189.503 363.9 189.328 364.203L188.624 365.423C188.449 365.726 188.553 366.113 188.856 366.288C189.159 366.463 189.546 366.359 189.721 366.056Z" fill="#EBC27E"/>
    <path d="M204.015 377.431L205.456 378.263C205.759 378.438 206.147 378.334 206.322 378.031C206.497 377.728 206.393 377.341 206.09 377.166L204.648 376.334C204.345 376.159 203.958 376.262 203.783 376.566C203.608 376.868 203.711 377.256 204.015 377.431Z" fill="#EBC27E"/>
    <path d="M205.721 375.293L206.425 374.074C206.6 373.77 206.496 373.383 206.193 373.208C205.89 373.033 205.503 373.137 205.328 373.44L204.624 374.66C204.449 374.963 204.553 375.35 204.855 375.525C205.158 375.7 205.546 375.597 205.721 375.293Z" fill="#EBC27E"/>
    <path d="M183.694 355.948C182.004 357.401 180.553 359.145 179.405 361.132C176.734 365.758 176.024 371.148 177.407 376.308C178.79 381.468 182.099 385.781 186.726 388.452C190.591 390.684 194.968 391.549 199.382 390.954C199.729 390.908 199.972 390.589 199.925 390.242C199.879 389.895 199.56 389.652 199.213 389.698C195.078 390.256 190.979 389.445 187.359 387.355C183.026 384.853 179.926 380.814 178.631 375.98C177.336 371.147 178.001 366.099 180.502 361.765C182.186 358.85 184.709 356.36 187.687 354.72C187.69 354.718 187.694 354.717 187.697 354.715C193.341 351.582 200.449 351.664 206.039 354.878L206.092 354.909C210.416 357.394 213.642 361.673 214.876 366.501C216.077 371.202 215.373 376.3 212.949 380.498C210.45 384.827 206.415 387.925 201.588 389.222C201.25 389.313 201.05 389.661 201.141 389.999C201.232 390.336 201.579 390.537 201.917 390.446C207.071 389.061 211.378 385.753 214.046 381.132C215.194 379.145 215.978 377.016 216.391 374.826C218.45 374.67 220.321 373.508 221.363 371.703C223.096 368.703 222.064 364.852 219.063 363.12C217.734 362.352 216.211 362.103 214.722 362.396C212.995 358.819 210.241 355.841 206.726 353.811C203.21 351.782 199.254 350.886 195.293 351.179C194.802 349.742 193.825 348.548 192.496 347.781C191.382 347.138 190.118 346.855 188.838 346.961C188.49 346.99 188.231 347.296 188.26 347.645C188.288 347.993 188.595 348.253 188.943 348.224C189.964 348.139 190.973 348.365 191.862 348.878C192.837 349.441 193.576 350.292 193.994 351.316C193.598 351.372 193.203 351.44 192.808 351.52C192.554 351.571 191.962 351.708 191.919 351.719C191.674 351.154 191.255 350.678 190.711 350.364C189.326 349.564 187.548 350.041 186.749 351.426C186.311 352.184 186.25 353.099 186.551 353.903C185.916 354.277 185.303 354.687 184.714 355.129C184.13 353.703 184.227 352.069 185.009 350.714C185.446 349.957 186.077 349.325 186.831 348.887C187.134 348.711 187.237 348.324 187.061 348.021C186.886 347.719 186.498 347.616 186.196 347.791C185.25 348.34 184.46 349.132 183.912 350.081C182.87 351.886 182.799 354.087 183.694 355.948ZM216.701 370.042C216.684 369.741 216.66 369.439 216.629 369.138C216.551 368.375 216.428 367.593 216.259 366.836C216.546 366.833 216.831 366.907 217.085 367.054C217.865 367.504 218.134 368.506 217.683 369.286C217.466 369.661 217.109 369.929 216.701 370.042ZM218.43 364.217C220.826 365.6 221.649 368.674 220.266 371.07C219.484 372.424 218.117 373.325 216.591 373.532C216.679 372.802 216.727 372.066 216.734 371.328C217.58 371.188 218.343 370.677 218.78 369.919C219.58 368.534 219.104 366.756 217.719 365.957C217.175 365.643 216.553 365.518 215.941 365.588C215.857 365.296 215.78 365.001 215.669 364.718C215.541 364.337 215.402 363.96 215.252 363.59C216.348 363.439 217.454 363.654 218.43 364.217ZM187.846 352.059C188.296 351.279 189.297 351.01 190.078 351.461C190.332 351.608 190.538 351.818 190.68 352.068C190.675 352.069 190.669 352.071 190.664 352.073C189.928 352.306 189.205 352.58 188.501 352.898C188.225 353.022 187.951 353.152 187.682 353.287C187.576 352.878 187.629 352.434 187.846 352.059Z" fill="#EBC27E"/>
    <path d="M200.281 370.649C200.281 370.649 200.281 370.649 200.282 370.649C199.741 369.817 199.028 369.142 198.163 368.642C197.298 368.143 196.357 367.863 195.366 367.811L195.365 367.811C193.001 367.688 190.798 368.884 189.615 370.933C187.89 373.921 188.918 377.755 191.906 379.48C194.894 381.205 198.728 380.178 200.453 377.19C201.636 375.142 201.57 372.635 200.281 370.649C200.282 370.649 200.282 370.649 200.281 370.649ZM198.888 370.887C198.277 371.263 197.473 371.271 196.852 370.913C196.231 370.554 195.836 369.855 195.857 369.137C196.443 369.234 197.004 369.436 197.53 369.739C198.055 370.043 198.51 370.428 198.888 370.887ZM199.356 376.557C197.98 378.94 194.922 379.759 192.539 378.383C190.156 377.007 189.337 373.949 190.712 371.566C191.536 370.139 192.981 369.231 194.59 369.089C194.59 369.091 194.59 369.094 194.59 369.096C194.568 369.816 194.792 370.537 195.219 371.117C195.486 371.479 195.829 371.785 196.219 372.01C196.599 372.23 197.023 372.372 197.459 372.425C198.175 372.512 198.939 372.35 199.554 371.965C199.557 371.963 199.56 371.962 199.563 371.96C200.244 373.424 200.18 375.13 199.356 376.557Z" fill="#EBC27E"/>
    <path d="M100.172 270.665L100.173 270.665C102.567 271.105 104.414 272.345 105.741 274.406C107.068 276.467 107.415 278.635 106.796 280.945L106.796 280.945L106.794 280.954L102.595 297.82C102.473 298.271 102.239 298.575 101.896 298.773C101.553 298.971 101.173 299.022 100.72 298.902L84.0144 294.105L84.0145 294.105L84.0059 294.103C81.6957 293.484 79.9916 292.099 78.8702 289.92C77.7486 287.74 77.5983 285.521 78.415 283.227L78.4153 283.226C79.1217 281.233 80.4125 279.816 82.3061 278.949L82.3061 278.949L82.3152 278.944C84.2382 278.016 86.2221 277.844 88.2909 278.427L88.2909 278.427L88.2972 278.429L90.0061 278.887L90.4891 279.016L90.6185 278.533L91.0764 276.825L91.0764 276.825L91.078 276.818C91.608 274.732 92.7327 273.112 94.4601 271.933L94.4601 271.933L94.4671 271.928C96.2036 270.699 98.095 270.281 100.172 270.665Z" stroke="#E24A9A"/>
    <path d="M106.905 70.7206L106.906 70.7207C109.3 71.1602 111.147 72.4001 112.474 74.4613C113.801 76.5221 114.148 78.6902 113.529 81.0004L113.529 81.0003L113.527 81.009L109.328 97.8752C109.206 98.3269 108.972 98.6305 108.629 98.8285C108.286 99.0265 107.906 99.0775 107.453 98.9573L90.7475 94.1605L90.7475 94.1604L90.7389 94.1581C88.4288 93.5391 86.7246 92.1545 85.6032 89.9753C84.4816 87.7957 84.3313 85.576 85.1481 83.2824L85.1483 83.2817C85.8547 81.2885 87.1455 79.8716 89.0391 79.0042L89.0392 79.0043L89.0482 78.9999C90.9712 78.0718 92.9552 77.8996 95.0239 78.4828L95.0239 78.4829L95.0302 78.4845L96.7392 78.9425L97.2221 79.0719L97.3515 78.5889L97.8094 76.8799L97.8095 76.88L97.8111 76.8737C98.3411 74.7878 99.4658 73.167 101.193 71.988L101.193 71.988L101.2 71.9831C102.937 70.7541 104.828 70.3362 106.905 70.7206Z" stroke="#E24A9A"/>
    <path d="M275.905 167.721L275.906 167.721C278.3 168.16 280.147 169.4 281.474 171.461C282.801 173.522 283.148 175.69 282.529 178L282.529 178L282.527 178.009L278.328 194.875C278.206 195.327 277.972 195.631 277.629 195.829C277.286 196.027 276.906 196.078 276.453 195.957L259.747 191.16L259.747 191.16L259.739 191.158C257.429 190.539 255.725 189.155 254.603 186.975C253.482 184.796 253.331 182.576 254.148 180.282L254.148 180.282C254.855 178.289 256.146 176.872 258.039 176.004L258.039 176.004L258.048 176C259.971 175.072 261.955 174.9 264.024 175.483L264.024 175.483L264.03 175.485L265.739 175.942L266.222 176.072L266.352 175.589L266.809 173.88L266.809 173.88L266.811 173.874C267.341 171.788 268.466 170.167 270.193 168.988L270.193 168.988L270.2 168.983C271.937 167.754 273.828 167.336 275.905 167.721Z" stroke="#E24A9A"/>
    <path d="M372.327 101.058C371.978 101.082 371.714 101.384 371.737 101.733C371.749 101.903 371.68 102.077 371.548 102.209C371.416 102.34 371.243 102.409 371.072 102.398C370.893 102.386 370.709 102.455 370.582 102.582C370.455 102.709 370.385 102.893 370.398 103.072C370.409 103.243 370.34 103.416 370.208 103.548C370.077 103.68 369.903 103.749 369.733 103.737C369.384 103.714 369.082 103.978 369.058 104.327C369.035 104.676 369.299 104.978 369.648 105.001C370.183 105.038 370.714 104.834 371.104 104.444C371.344 104.205 371.512 103.913 371.599 103.599C371.912 103.512 372.205 103.344 372.444 103.104C372.834 102.714 373.037 102.183 373.001 101.648C372.978 101.299 372.676 101.035 372.327 101.058Z" fill="#EBC27E"/>
    <path d="M361.948 109.684C361.701 109.931 361.701 110.332 361.948 110.58C362.196 110.827 362.597 110.827 362.844 110.58L364.021 109.403C364.269 109.155 364.269 108.754 364.021 108.507C363.774 108.259 363.373 108.259 363.126 108.507L361.948 109.684Z" fill="#EBC27E"/>
    <path d="M362.716 106.884L361.72 105.888C361.473 105.64 361.072 105.64 360.824 105.888C360.577 106.135 360.577 106.536 360.824 106.784L361.82 107.779C362.068 108.027 362.469 108.027 362.716 107.779C362.963 107.532 362.964 107.131 362.716 106.884Z" fill="#EBC27E"/>
    <path d="M375.779 93.8203L374.784 92.8243C374.536 92.5768 374.135 92.577 373.888 92.8243C373.64 93.0716 373.64 93.4727 373.888 93.7202L374.884 94.7161C375.131 94.9637 375.532 94.9634 375.779 94.7161C376.027 94.4688 376.027 94.0678 375.779 93.8203Z" fill="#EBC27E"/>
    <path d="M351.392 110.09C352.359 112.098 353.667 113.951 355.29 115.574C359.067 119.351 364.089 121.432 369.432 121.431C374.774 121.431 379.796 119.351 383.574 115.574C386.73 112.418 388.698 108.414 389.266 103.996C389.311 103.649 389.066 103.332 388.719 103.287C388.371 103.243 388.054 103.487 388.009 103.835C387.477 107.972 385.634 111.722 382.678 114.678C379.14 118.216 374.435 120.165 369.432 120.165C364.428 120.165 359.724 118.216 356.185 114.678C353.805 112.298 352.053 109.216 351.239 105.914C351.238 105.911 351.238 105.907 351.237 105.904C349.672 99.6411 351.591 92.797 356.142 88.2285L356.185 88.1854C359.705 84.6523 364.673 82.6431 369.657 82.7014C374.508 82.7581 379.25 84.7575 382.678 88.1854C386.212 91.7196 388.16 96.4185 388.164 101.417C388.165 101.767 388.449 102.05 388.798 102.05C389.148 102.049 389.431 101.766 389.431 101.416C389.427 96.0798 387.347 91.0627 383.574 87.2895C381.951 85.6669 380.098 84.3586 378.09 83.3927C378.472 81.3632 377.834 79.2551 376.36 77.7814C373.911 75.3315 369.924 75.3313 367.474 77.7814C366.388 78.8669 365.753 80.2733 365.651 81.7874C361.749 82.53 358.16 84.4192 355.29 87.2895C352.419 90.1598 350.53 93.7493 349.788 97.6515C348.273 97.7537 346.867 98.3887 345.781 99.474C344.872 100.383 344.271 101.531 344.043 102.794C343.981 103.139 344.209 103.468 344.554 103.53C344.898 103.593 345.228 103.364 345.29 103.02C345.472 102.012 345.952 101.096 346.677 100.37C347.474 99.5736 348.487 99.0802 349.584 98.9421C349.535 99.3387 349.499 99.7381 349.474 100.14C349.457 100.399 349.437 101.006 349.436 101.05C348.827 101.141 348.259 101.422 347.815 101.866C346.684 102.997 346.684 104.838 347.815 105.969C348.434 106.588 349.302 106.884 350.157 106.8C350.354 107.511 350.591 108.209 350.865 108.892C349.337 109.087 347.783 108.57 346.677 107.465C346.059 106.846 345.612 106.074 345.384 105.231C345.292 104.894 344.945 104.694 344.607 104.785C344.269 104.877 344.07 105.224 344.161 105.562C344.446 106.618 345.007 107.586 345.781 108.36C347.255 109.834 349.363 110.472 351.392 110.09ZM373.549 81.8548C373.254 81.7934 372.956 81.7384 372.657 81.6903C371.9 81.5681 371.112 81.485 370.337 81.4524C370.409 81.1745 370.554 80.9181 370.762 80.7105C371.399 80.0736 372.436 80.0736 373.073 80.7107C373.379 81.017 373.545 81.4321 373.549 81.8548ZM368.37 78.6773C370.326 76.7213 373.509 76.7213 375.465 78.6773C376.57 79.7831 377.087 81.3366 376.892 82.865C376.209 82.5909 375.511 82.3534 374.8 82.1565C374.884 81.3024 374.588 80.4338 373.968 79.8146C372.837 78.6836 370.997 78.6836 369.866 79.8146C369.422 80.2586 369.14 80.8271 369.05 81.4363C368.746 81.4419 368.441 81.4402 368.139 81.4738C367.738 81.4993 367.338 81.5352 366.942 81.5842C367.08 80.4867 367.573 79.4738 368.37 78.6773ZM348.71 105.073C348.074 104.436 348.073 103.399 348.71 102.762C348.918 102.554 349.174 102.409 349.452 102.337C349.452 102.343 349.453 102.349 349.453 102.354C349.488 103.125 349.566 103.895 349.69 104.657C349.738 104.956 349.793 105.253 349.855 105.549C349.432 105.545 349.017 105.379 348.71 105.073Z" fill="#EBC27E"/>
    <path d="M369.886 97.8722C369.886 97.8722 369.886 97.8722 369.886 97.872C368.942 98.179 368.105 98.6925 367.399 99.3989C366.692 100.105 366.179 100.942 365.872 101.886L365.872 101.886C365.141 104.138 365.726 106.576 367.399 108.248C369.838 110.688 373.808 110.688 376.248 108.248C378.688 105.809 378.688 101.839 376.248 99.3991C374.576 97.7266 372.138 97.1415 369.886 97.8722C369.886 97.872 369.886 97.872 369.886 97.8722ZM369.754 99.2799C369.96 99.9672 369.76 100.746 369.253 101.253C368.745 101.76 367.968 101.96 367.28 101.754C367.526 101.213 367.865 100.724 368.295 100.295C368.724 99.8655 369.213 99.5256 369.754 99.2799ZM375.352 100.295C377.298 102.241 377.298 105.407 375.352 107.352C373.407 109.298 370.24 109.298 368.295 107.353C367.13 106.187 366.626 104.557 366.906 102.966C366.908 102.966 366.91 102.967 366.913 102.967C367.602 103.176 368.356 103.145 369.027 102.883C369.446 102.719 369.831 102.467 370.149 102.149C370.459 101.839 370.707 101.465 370.871 101.058C371.14 100.389 371.181 99.6091 370.968 98.9148C370.967 98.9118 370.967 98.9088 370.966 98.9057C372.557 98.6262 374.187 99.1299 375.352 100.295Z" fill="#EBC27E"/>
    <path d="M331.327 280.058C330.978 280.082 330.714 280.384 330.737 280.733C330.749 280.903 330.68 281.077 330.548 281.209C330.416 281.34 330.243 281.409 330.072 281.398C329.893 281.386 329.709 281.455 329.582 281.582C329.455 281.709 329.385 281.893 329.398 282.072C329.409 282.243 329.34 282.416 329.208 282.548C329.077 282.68 328.903 282.749 328.733 282.737C328.384 282.714 328.082 282.978 328.058 283.327C328.035 283.676 328.299 283.978 328.648 284.001C329.183 284.038 329.714 283.834 330.104 283.444C330.344 283.205 330.512 282.913 330.599 282.599C330.912 282.512 331.205 282.344 331.444 282.104C331.834 281.714 332.037 281.183 332.001 280.648C331.978 280.299 331.676 280.035 331.327 280.058Z" fill="#E24A9A"/>
    <path d="M320.948 288.684C320.701 288.931 320.701 289.332 320.948 289.58C321.196 289.827 321.597 289.827 321.844 289.58L323.021 288.403C323.269 288.155 323.269 287.754 323.021 287.507C322.774 287.259 322.373 287.259 322.126 287.507L320.948 288.684Z" fill="#E24A9A"/>
    <path d="M321.716 285.884L320.72 284.888C320.473 284.64 320.072 284.64 319.824 284.888C319.577 285.135 319.577 285.536 319.824 285.784L320.82 286.779C321.068 287.027 321.469 287.027 321.716 286.779C321.963 286.532 321.964 286.131 321.716 285.884Z" fill="#E24A9A"/>
    <path d="M336.403 275.021L337.58 273.844C337.827 273.597 337.827 273.196 337.58 272.948C337.332 272.701 336.931 272.701 336.684 272.948L335.507 274.126C335.259 274.373 335.259 274.774 335.507 275.021C335.754 275.269 336.155 275.269 336.403 275.021Z" fill="#E24A9A"/>
    <path d="M334.779 272.82L333.784 271.824C333.536 271.577 333.135 271.577 332.888 271.824C332.64 272.072 332.64 272.473 332.888 272.72L333.884 273.716C334.131 273.964 334.532 273.963 334.779 273.716C335.027 273.469 335.027 273.068 334.779 272.82Z" fill="#E24A9A"/>
    <path d="M310.392 289.09C311.359 291.098 312.667 292.951 314.29 294.574C318.067 298.351 323.089 300.432 328.432 300.431C333.774 300.431 338.796 298.351 342.574 294.574C345.73 291.418 347.698 287.414 348.266 282.996C348.311 282.649 348.066 282.332 347.719 282.287C347.371 282.243 347.054 282.487 347.009 282.835C346.477 286.972 344.634 290.722 341.678 293.678C338.14 297.216 333.435 299.165 328.432 299.165C323.428 299.165 318.724 297.216 315.185 293.678C312.805 291.298 311.053 288.216 310.239 284.914C310.238 284.911 310.238 284.907 310.237 284.904C308.672 278.641 310.591 271.797 315.142 267.229L315.185 267.185C318.705 263.652 323.673 261.643 328.657 261.701C333.508 261.758 338.25 263.758 341.678 267.185C345.212 270.72 347.16 275.419 347.164 280.417C347.165 280.767 347.449 281.05 347.798 281.05C348.148 281.049 348.431 280.766 348.431 280.416C348.427 275.08 346.347 270.063 342.574 266.29C340.951 264.667 339.098 263.359 337.09 262.393C337.472 260.363 336.834 258.255 335.36 256.781C332.911 254.332 328.924 254.331 326.474 256.781C325.388 257.867 324.753 259.273 324.651 260.787C320.749 261.53 317.16 263.419 314.29 266.29C311.419 269.16 309.53 272.749 308.788 276.651C307.273 276.754 305.867 277.389 304.781 278.474C303.872 279.383 303.271 280.531 303.043 281.794C302.981 282.139 303.209 282.468 303.554 282.53C303.898 282.593 304.228 282.364 304.29 282.02C304.472 281.012 304.952 280.096 305.677 279.37C306.474 278.574 307.487 278.08 308.584 277.942C308.535 278.339 308.499 278.738 308.474 279.14C308.457 279.399 308.437 280.006 308.436 280.05C307.827 280.141 307.259 280.422 306.815 280.866C305.684 281.997 305.684 283.838 306.815 284.969C307.434 285.588 308.302 285.884 309.157 285.8C309.354 286.511 309.591 287.209 309.865 287.892C308.337 288.087 306.783 287.57 305.677 286.465C305.059 285.846 304.612 285.074 304.384 284.231C304.292 283.894 303.945 283.694 303.607 283.785C303.269 283.877 303.07 284.224 303.161 284.562C303.446 285.618 304.007 286.586 304.781 287.36C306.255 288.834 308.363 289.472 310.392 289.09ZM332.549 260.855C332.254 260.793 331.956 260.738 331.657 260.69C330.9 260.568 330.112 260.485 329.337 260.452C329.409 260.175 329.554 259.918 329.762 259.71C330.399 259.074 331.436 259.074 332.073 259.711C332.379 260.017 332.545 260.432 332.549 260.855ZM327.37 257.677C329.326 255.721 332.509 255.721 334.465 257.677C335.57 258.783 336.087 260.337 335.892 261.865C335.209 261.591 334.511 261.353 333.8 261.156C333.884 260.302 333.588 259.434 332.968 258.815C331.837 257.684 329.997 257.684 328.866 258.815C328.422 259.259 328.14 259.827 328.05 260.436C327.746 260.442 327.441 260.44 327.139 260.474C326.738 260.499 326.338 260.535 325.942 260.584C326.08 259.487 326.573 258.474 327.37 257.677ZM307.71 284.073C307.074 283.436 307.073 282.399 307.71 281.762C307.918 281.554 308.174 281.409 308.452 281.337C308.452 281.343 308.453 281.349 308.453 281.354C308.488 282.125 308.566 282.895 308.69 283.657C308.738 283.956 308.793 284.253 308.855 284.549C308.432 284.545 308.017 284.379 307.71 284.073Z" fill="#E24A9A"/>
    <path d="M328.886 276.872C328.886 276.872 328.886 276.872 328.886 276.872C327.942 277.179 327.105 277.692 326.399 278.399C325.692 279.105 325.179 279.942 324.872 280.886L324.872 280.886C324.141 283.138 324.726 285.576 326.399 287.248C328.838 289.688 332.808 289.688 335.248 287.248C337.688 284.809 337.688 280.839 335.248 278.399C333.576 276.727 331.138 276.142 328.886 276.872C328.886 276.872 328.886 276.872 328.886 276.872ZM328.754 278.28C328.96 278.967 328.76 279.746 328.253 280.253C327.745 280.76 326.968 280.96 326.28 280.754C326.526 280.213 326.865 279.724 327.295 279.295C327.724 278.866 328.213 278.526 328.754 278.28ZM334.352 279.295C336.298 281.241 336.298 284.407 334.352 286.352C332.407 288.298 329.24 288.298 327.295 286.353C326.13 285.187 325.626 283.557 325.906 281.966C325.908 281.966 325.91 281.967 325.913 281.967C326.602 282.176 327.356 282.145 328.027 281.883C328.446 281.719 328.831 281.467 329.149 281.149C329.459 280.839 329.707 280.465 329.871 280.058C330.14 279.389 330.181 278.609 329.968 277.915C329.967 277.912 329.967 277.909 329.966 277.906C331.557 277.626 333.187 278.13 334.352 279.295Z" fill="#E24A9A"/>
    <path d="M266.207 23.1144L266.208 23.1147C268.407 24.159 269.87 25.8348 270.618 28.1691C271.366 30.503 271.14 32.6871 269.945 34.7583L269.945 34.7582L269.94 34.766L261.519 49.9708C261.284 50.3755 260.98 50.6082 260.597 50.7107C260.215 50.8132 259.834 50.7641 259.429 50.5309L244.533 41.5737L244.533 41.5737L244.526 41.5692C242.455 40.3734 241.167 38.5949 240.648 36.1997C240.128 33.8041 240.558 31.6212 241.94 29.6171L241.941 29.6165C243.139 27.874 244.752 26.8395 246.806 26.4917L246.806 26.4918L246.816 26.4899C248.914 26.0912 250.875 26.4383 252.722 27.5371L252.722 27.5372L252.727 27.5404L254.26 28.425L254.693 28.675L254.943 28.242L255.827 26.7098L255.827 26.7098L255.831 26.7042C256.882 24.8265 258.388 23.5521 260.362 22.8603L260.362 22.8604L260.37 22.8574C262.365 22.1197 264.3 22.2055 266.207 23.1144Z" stroke="#EBC27E"/>
    <path d="M23.7326 183.7C23.6194 183.369 23.2598 183.192 22.9285 183.305C22.7667 183.36 22.5812 183.338 22.42 183.245C22.2586 183.152 22.147 183.002 22.1142 182.835C22.0791 182.658 21.9648 182.499 21.8091 182.409C21.6533 182.319 21.4584 182.299 21.2881 182.358C21.1263 182.413 20.9408 182.391 20.7794 182.298C20.6182 182.205 20.5066 182.055 20.4738 181.888C20.4059 181.544 20.0729 181.321 19.7295 181.389C19.3863 181.457 19.1628 181.79 19.2306 182.133C19.3342 182.659 19.6682 183.12 20.1459 183.395C20.4391 183.565 20.7648 183.652 21.0903 183.654C21.2551 183.935 21.4937 184.174 21.7866 184.343C22.2646 184.619 22.8299 184.678 23.3377 184.504C23.6688 184.391 23.8454 184.031 23.7326 183.7Z" fill="#EBC27E"/>
    <path d="M12.7149 175.908C12.412 175.733 12.0246 175.836 11.8495 176.139C11.6747 176.442 11.7785 176.83 12.0814 177.005L13.5232 177.837C13.8261 178.012 14.2137 177.908 14.3885 177.605C14.5636 177.302 14.4595 176.915 14.1567 176.74L12.7149 175.908Z" fill="#EBC27E"/>
    <path d="M15.6185 175.924L16.3227 174.705C16.4977 174.401 16.3937 174.014 16.0908 173.839C15.788 173.664 15.4005 173.768 15.2255 174.071L14.5213 175.291C14.3462 175.594 14.4502 175.981 14.7531 176.156C15.056 176.331 15.4434 176.228 15.6185 175.924Z" fill="#EBC27E"/>
    <path d="M29.9116 187.299L31.3534 188.131C31.6563 188.306 32.0439 188.202 32.2187 187.9C32.3938 187.596 32.2897 187.209 31.9869 187.034L30.5451 186.202C30.2419 186.027 29.8548 186.131 29.6797 186.434C29.5049 186.737 29.6084 187.124 29.9116 187.299Z" fill="#EBC27E"/>
    <path d="M31.6177 185.162L32.322 183.942C32.497 183.639 32.393 183.251 32.0901 183.076C31.7872 182.902 31.3998 183.005 31.2248 183.308L30.5205 184.528C30.3455 184.831 30.4495 185.219 30.7524 185.393C31.0553 185.568 31.4427 185.465 31.6177 185.162Z" fill="#EBC27E"/>
    <path d="M9.59065 165.816C7.90066 167.269 6.44955 169.013 5.3022 171C2.63121 175.626 1.92146 181.016 3.30438 186.176C4.68701 191.336 7.99642 195.65 12.6227 198.32C16.4878 200.552 20.8645 201.417 25.279 200.822C25.6259 200.776 25.8691 200.457 25.8224 200.11C25.7755 199.763 25.4568 199.52 25.1098 199.567C20.9754 200.124 16.8764 199.313 13.2562 197.223C8.92277 194.721 5.8231 190.682 4.52802 185.848C3.23294 181.015 3.89752 175.967 6.39941 171.633C8.08258 168.718 10.6057 166.228 13.5843 164.588C13.5873 164.586 13.5909 164.585 13.5939 164.583C19.2381 161.45 26.3455 161.532 31.9364 164.746L31.9892 164.777C36.313 167.262 39.5395 171.541 40.7729 176.369C41.9738 181.07 41.2699 186.168 38.846 190.367C36.3469 194.695 32.3124 197.793 27.4853 199.091C27.1474 199.182 26.9473 199.529 27.038 199.867C27.129 200.205 27.4763 200.405 27.8144 200.314C32.9675 198.929 37.2752 195.621 39.9432 191C41.0906 189.013 41.8748 186.884 42.288 184.695C44.3471 184.538 46.2183 183.376 47.2604 181.572C48.9927 178.571 47.9612 174.72 44.9604 172.988C43.6309 172.22 42.1081 171.971 40.6192 172.264C38.892 168.687 36.1381 165.709 32.6227 163.679C29.1073 161.65 25.1511 160.754 21.1898 161.047C20.6991 159.61 19.7217 158.416 18.3925 157.649C17.2793 157.006 16.0146 156.723 14.7353 156.829C14.3867 156.858 14.1276 157.164 14.1565 157.513C14.1854 157.861 14.4917 158.121 14.8402 158.092C15.8611 158.007 16.8702 158.233 17.7588 158.746C18.7343 159.31 19.4731 160.16 19.8905 161.184C19.4947 161.24 19.0996 161.308 18.7052 161.388C18.4509 161.439 17.8587 161.576 17.816 161.587C17.5709 161.022 17.152 160.546 16.6082 160.232C15.223 159.432 13.4453 159.909 12.6455 161.294C12.2077 162.052 12.1467 162.968 12.4485 163.771C11.8126 164.146 11.1999 164.555 10.6113 164.997C10.0271 163.571 10.1242 161.937 10.9061 160.582C11.3433 159.825 11.9737 159.193 12.7284 158.755C13.031 158.579 13.134 158.192 12.9582 157.889C12.7827 157.587 12.3953 157.484 12.0925 157.659C11.1465 158.208 10.3568 159 9.80891 159.949C8.76681 161.754 8.69632 163.955 9.59065 165.816ZM42.5982 179.91C42.5809 179.609 42.5571 179.307 42.5261 179.006C42.4483 178.243 42.3247 177.461 42.1556 176.704C42.4427 176.701 42.7278 176.775 42.9821 176.922C43.7622 177.372 44.0305 178.374 43.58 179.154C43.3634 179.529 43.0055 179.797 42.5982 179.91ZM44.327 174.085C46.7225 175.468 47.5463 178.542 46.1632 180.938C45.3812 182.292 44.0144 183.194 42.4876 183.401C42.5756 182.67 42.6244 181.934 42.6305 181.196C43.4772 181.056 44.2395 180.546 44.6774 179.787C45.4771 178.402 45.0008 176.624 43.6156 175.825C43.0719 175.511 42.4498 175.386 41.838 175.456C41.754 175.164 41.6765 174.869 41.566 174.586C41.4375 174.205 41.2994 173.828 41.1494 173.458C42.2452 173.307 43.3515 173.522 44.327 174.085ZM13.7429 161.927C14.1932 161.147 15.1944 160.879 15.9747 161.329C16.229 161.476 16.4353 161.686 16.5769 161.936C16.5715 161.937 16.5662 161.939 16.5606 161.941C15.8251 162.174 15.1018 162.449 14.3982 162.766C14.1216 162.89 13.8485 163.02 13.5788 163.156C13.4728 162.747 13.5261 162.303 13.7429 161.927Z" fill="#EBC27E"/>
    <path d="M26.1784 180.517C26.1784 180.517 26.1784 180.517 26.1786 180.517C25.6378 179.685 24.9253 179.01 24.0601 178.51C23.1949 178.011 22.2536 177.731 21.2629 177.679L21.2624 177.679C18.8982 177.556 16.6947 178.752 15.5121 180.801C13.787 183.789 14.8145 187.623 17.8027 189.348C20.7906 191.074 24.6251 190.046 26.3502 187.058C27.5329 185.01 27.467 182.503 26.1784 180.517C26.1787 180.518 26.1787 180.518 26.1784 180.517ZM24.7846 180.755C24.174 181.131 23.3701 181.139 22.7492 180.781C22.1278 180.422 21.7332 179.723 21.7541 179.005C22.3403 179.102 22.9008 179.304 23.4266 179.608C23.9523 179.911 24.4073 180.296 24.7846 180.755ZM25.253 186.425C23.8772 188.808 20.8192 189.627 18.4362 188.251C16.0532 186.875 15.2335 183.817 16.6093 181.434C17.4332 180.007 18.878 179.099 20.4873 178.957C20.4871 178.959 20.4873 178.962 20.4873 178.964C20.4648 179.684 20.6892 180.405 21.1159 180.985C21.3828 181.347 21.7259 181.653 22.1156 181.878C22.4956 182.098 22.9205 182.24 23.3562 182.293C24.0721 182.38 24.836 182.218 25.4515 181.833C25.4541 181.831 25.457 181.83 25.4596 181.828C26.1414 183.292 26.0768 184.998 25.253 186.425Z" fill="#EBC27E"/>
    <path d="M210.833 687.815L210.834 687.816C211.65 690.11 211.5 692.329 210.378 694.509C209.257 696.688 207.553 698.073 205.243 698.692L205.243 698.692L205.234 698.694L188.528 703.491C188.076 703.611 187.696 703.56 187.353 703.362C187.01 703.164 186.776 702.86 186.654 702.409L182.455 685.542L182.455 685.542L182.453 685.534C181.834 683.224 182.181 681.056 183.507 678.995C184.834 676.934 186.681 675.694 189.076 675.254L189.077 675.254C191.156 674.869 193.029 675.279 194.727 676.485L194.727 676.485L194.735 676.491C196.5 677.692 197.641 679.324 198.171 681.407L198.17 681.407L198.172 681.413L198.63 683.122L198.759 683.605L199.242 683.476L200.951 683.018L200.951 683.018L200.958 683.016C203.029 682.432 204.995 682.596 206.88 683.502L206.88 683.503L206.888 683.506C208.82 684.395 210.128 685.824 210.833 687.815Z" stroke="#EBC27E"/>
    </g>
    </g>
    </svg>
