<?xml version="1.0" encoding="UTF-8"?>
<svg xmlns="http://www.w3.org/2000/svg" xmlns:xlink="http://www.w3.org/1999/xlink" width="43pt" height="45pt" viewBox="0 0 43 45" version="1.1">
<g id="surface1">
<path style=" stroke:none;fill-rule:nonzero;fill:rgb(0%,0%,0%);fill-opacity:1;" d="M 6.746094 6.105469 C 5.105469 6.992188 4.835938 7.875 4.835938 12.507812 L 4.835938 16.605469 L 8.332031 16.605469 L 8.332031 9.375 L 15.855469 9.375 L 15.855469 5.625 L 11.746094 5.625 C 8.304688 5.625 7.5 5.707031 6.746094 6.105469 Z M 6.746094 6.105469 "/>
<path style=" stroke:none;fill-rule:nonzero;fill:rgb(0%,0%,0%);fill-opacity:1;" d="M 27.144531 7.5 L 27.144531 9.375 L 34.667969 9.375 L 34.667969 16.605469 L 38.164062 16.605469 L 38.164062 12.375 C 38.164062 5.945312 37.8125 5.625 31.175781 5.625 L 27.144531 5.625 Z M 27.144531 7.5 "/>
<path style=" stroke:none;fill-rule:nonzero;fill:rgb(0%,0%,0%);fill-opacity:1;" d="M 21.769531 19.285156 L 21.769531 21.964844 L 19.214844 21.964844 C 17.121094 21.964844 16.664062 22.042969 16.664062 22.367188 C 16.664062 22.6875 17.121094 22.769531 19.214844 22.769531 L 21.742188 22.769531 L 21.824219 25.367188 C 21.875 27.480469 21.984375 27.992188 22.304688 27.992188 C 22.628906 27.992188 22.734375 27.480469 22.789062 25.367188 L 22.871094 22.769531 L 25.398438 22.769531 C 27.492188 22.769531 27.949219 22.6875 27.949219 22.367188 C 27.949219 22.042969 27.492188 21.964844 25.398438 21.964844 L 22.84375 21.964844 L 22.84375 19.285156 C 22.84375 16.792969 22.816406 16.605469 22.304688 16.605469 C 21.796875 16.605469 21.769531 16.792969 21.769531 19.285156 Z M 21.769531 19.285156 "/>
<path style=" stroke:none;fill-rule:nonzero;fill:rgb(0%,0%,0%);fill-opacity:1;" d="M 4.835938 32.0625 C 4.835938 35.785156 4.890625 36.402344 5.375 37.152344 C 6.371094 38.785156 6.90625 38.972656 11.609375 39.054688 L 15.855469 39.160156 L 15.855469 35.355469 L 8.332031 35.355469 L 8.332031 27.855469 L 4.835938 27.855469 Z M 4.835938 32.0625 "/>
<path style=" stroke:none;fill-rule:nonzero;fill:rgb(0%,0%,0%);fill-opacity:1;" d="M 34.667969 31.605469 L 34.667969 35.355469 L 27.144531 35.355469 L 27.144531 39.105469 L 30.851562 39.105469 C 35.234375 39.105469 36.226562 38.867188 37.328125 37.605469 L 38.164062 36.667969 L 38.164062 27.855469 L 34.667969 27.855469 Z M 34.667969 31.605469 "/>
</g>
</svg>
